<?xml version="1.0" standalone="no"?>
<!DOCTYPE svg PUBLIC "-//W3C//DTD SVG 20010904//EN"
 "http://www.w3.org/TR/2001/REC-SVG-20010904/DTD/svg10.dtd">
<svg version="1.0" xmlns="http://www.w3.org/2000/svg"
 width="256.000000pt" height="256.000000pt" viewBox="0 0 256.000000 256.000000"
 preserveAspectRatio="xMidYMid meet">

<g transform="translate(0.000000,256.000000) scale(0.100000,-0.100000)"
fill="#000000" stroke="none">
<path d="M606 2341 c-3 -5 2 -28 13 -50 15 -35 20 -39 30 -27 10 12 9 21 -3
45 -18 34 -32 45 -40 32z"/>
<path d="M243 2303 c-19 -45 -24 -214 -7 -220 7 -2 9 21 7 74 -3 48 1 98 10
131 17 61 12 67 -10 15z"/>
<path d="M2123 2169 c-36 -14 -67 -37 -101 -74 l-49 -54 -5 -217 c-4 -197 -6
-218 -23 -230 -10 -8 -15 -14 -9 -14 5 0 18 7 28 15 26 20 196 22 196 3 0 -19
-200 -206 -201 -188 -1 9 -4 7 -7 -5 -4 -11 -38 -49 -77 -85 -38 -35 -71 -67
-73 -70 -1 -4 9 -12 23 -18 16 -7 34 -30 46 -57 l20 -46 29 21 c15 11 32 20
36 20 5 0 -8 -11 -29 -25 -33 -23 -37 -30 -37 -68 0 -23 -3 -60 -6 -82 l-6
-40 98 105 c165 177 338 351 359 362 11 6 -5 -16 -36 -48 -84 -88 -124 -134
-165 -189 -35 -48 -34 -47 37 22 l74 71 72 -5 c56 -4 78 -2 97 10 33 22 54 92
66 217 5 58 14 127 19 154 12 54 6 96 -14 96 -21 0 -51 -44 -65 -95 -7 -25
-17 -48 -21 -51 -16 -9 -10 52 11 118 23 75 25 153 4 188 -10 17 -13 18 -8 5
20 -58 18 -61 -65 -146 l-81 -83 0 -105 0 -105 32 30 32 29 -34 -40 -35 -40
-5 120 c-4 88 -7 112 -13 89 -8 -31 -26 -52 -57 -69 -8 -4 -3 5 13 22 33 36
37 87 7 103 -11 6 -20 7 -20 1 0 -5 7 -11 15 -15 9 -3 15 -17 14 -33 l-1 -28
-10 28 c-8 22 -16 27 -46 28 -33 1 -35 2 -12 9 14 4 18 8 9 9 -10 1 27 43 91
106 99 98 106 108 109 147 2 49 11 65 11 21 0 -20 5 -30 15 -30 18 0 18 2 6
25 -6 9 -12 28 -15 42 -3 14 -22 44 -42 65 -20 22 -30 32 -23 22 12 -17 9 -18
-39 -11 -42 5 -57 3 -88 -15 -20 -12 -37 -21 -38 -19 -1 2 -9 20 -19 41 -19
42 -23 38 55 62 24 8 34 14 23 14 -11 0 -43 -9 -72 -20z m-19 -94 c17 -54 17
-55 -4 -77 -31 -33 -57 -87 -79 -165 l-20 -68 0 141 -1 141 30 41 c17 23 36
42 43 42 7 0 21 -25 31 -55z m231 -5 c22 -42 18 -51 -5 -12 -20 33 -24 42 -15
42 2 0 11 -13 20 -30z m-187 -150 c0 -8 -6 1 -13 20 -7 19 -13 42 -13 50 0 8
6 -1 13 -20 7 -19 13 -42 13 -50z m192 17 c0 -1 -26 -27 -57 -57 l-58 -55 55
58 c50 53 60 62 60 54z m-171 -87 c0 -9 -4 -8 -9 5 -5 11 -9 27 -9 35 0 9 4 8
9 -5 5 -11 9 -27 9 -35z m11 -38 c0 -10 -21 -35 -47 -56 l-48 -38 43 41 c23
23 42 48 42 56 0 8 2 15 5 15 3 0 5 -8 5 -18z m217 -304 c-3 -7 -5 -2 -5 12 0
14 2 19 5 13 2 -7 2 -19 0 -25z m57 -38 c-4 -32 -15 -61 -28 -74 -12 -12 -15
-15 -8 -5 7 9 15 46 19 83 3 40 10 63 15 58 5 -5 6 -33 2 -62z m-343 -154
c-89 -90 -131 -138 -126 -146 5 -9 4 -11 -3 -6 -8 5 -11 40 -10 104 l2 97 5
-83 6 -82 125 125 c69 69 127 125 130 125 2 0 -55 -60 -129 -134z"/>
<path d="M330 2163 c0 -35 44 -125 71 -144 56 -39 157 -34 211 11 l23 20 -40
-16 c-22 -9 -63 -17 -91 -17 -74 0 -110 25 -145 98 -16 33 -29 55 -29 48z"/>
<path d="M901 2134 c0 -11 3 -14 6 -6 3 7 2 16 -1 19 -3 4 -6 -2 -5 -13z"/>
<path d="M1730 2136 c-208 -10 -234 -13 -175 -19 127 -14 338 -47 344 -53 3
-4 -10 -4 -29 0 -78 14 -638 56 -747 56 -37 0 -50 -7 -110 -59 -47 -42 -70
-56 -76 -48 -19 27 7 -42 34 -88 35 -62 246 -300 461 -520 l162 -167 26 30
c89 106 111 134 87 113 -15 -14 -27 -22 -27 -19 0 3 -27 -3 -61 -13 -33 -10
-71 -19 -83 -19 -21 0 -93 71 -277 274 l-44 49 35 -7 c79 -16 228 -36 267 -36
23 0 53 -4 66 -9 14 -5 80 -13 148 -17 72 -4 127 -12 131 -18 5 -8 8 -7 8 2 0
6 6 12 14 12 8 0 17 3 19 8 5 8 25 248 31 386 4 85 6 91 41 132 28 34 32 44
18 42 -10 -1 -128 -6 -263 -12z m-85 -61 c83 -8 177 -20 210 -25 33 -5 61 -10
63 -10 1 0 2 -24 2 -52 l0 -53 -147 2 c-205 2 -355 -15 -551 -64 -12 -3 -29
-18 -38 -34 -18 -36 -37 -38 -28 -4 7 29 5 30 -59 10 l-47 -14 -39 52 c-69 93
-69 87 6 158 l67 62 205 -6 c114 -4 274 -13 356 -22z m118 -194 c8 -8 -7 -11
-51 -11 l-62 0 -35 -70 c-20 -39 -40 -68 -45 -65 -12 7 37 136 58 153 19 16
118 10 135 -7z m-620 -121 c3 -11 1 -18 -4 -14 -5 3 -9 12 -9 20 0 20 7 17 13
-6z m47 -62 l23 -33 -31 29 c-34 31 -37 36 -24 36 5 0 19 -15 32 -32z m449
-396 c-57 -65 -64 -58 -8 7 23 28 44 49 47 47 2 -3 -15 -27 -39 -54z"/>
<path d="M911 2074 c0 -11 3 -14 6 -6 3 7 2 16 -1 19 -3 4 -6 -2 -5 -13z"/>
<path d="M2386 2070 c17 -17 26 -20 39 -12 20 10 13 16 -30 26 l-30 7 21 -21z"/>
<path d="M2468 1928 c-34 -57 -39 -119 -9 -111 13 3 23 -2 31 -17 9 -17 14
-19 26 -9 18 15 18 29 -1 29 -11 0 -15 18 -17 78 l-3 77 -27 -47z"/>
<path d="M430 1861 c0 -5 25 -19 55 -30 89 -33 216 -101 210 -111 -4 -6 1 -7
11 -3 11 4 15 3 10 -5 -4 -6 3 -16 16 -23 20 -11 22 -11 10 3 -10 13 -10 17 0
20 20 7 -106 84 -191 117 -104 39 -121 44 -121 32z"/>
<path d="M2382 1858 c-14 -14 -16 -38 -4 -38 12 0 32 23 32 37 0 16 -12 17
-28 1z"/>
<path d="M741 1607 c-42 -50 -43 -50 -7 -17 32 30 63 70 54 70 -2 0 -23 -24
-47 -53z"/>
<path d="M888 1580 c23 -25 42 -51 42 -58 0 -7 5 -12 10 -12 6 0 9 -4 8 -8 -3
-7 44 -59 221 -248 3 -2 -38 -44 -90 -93 -52 -49 -105 -107 -119 -129 -30 -50
-42 -51 -205 -22 -60 11 -116 20 -123 20 -7 0 -10 5 -7 10 4 6 10 8 15 5 5 -3
11 -1 15 5 3 5 25 19 48 29 23 10 63 28 88 39 26 12 61 38 78 58 l32 36 -22
24 c-16 17 -29 22 -43 18 -19 -6 -20 -5 -3 7 15 12 11 14 -32 17 -48 2 -52 1
-98 -47 -45 -47 -56 -52 -183 -92 -74 -23 -141 -44 -147 -46 -10 -4 -10 4 1
33 41 114 67 156 157 249 l93 96 -71 -26 c-39 -14 -96 -36 -126 -49 l-55 -25
13 -62 c13 -61 13 -63 -18 -125 -18 -34 -38 -63 -45 -63 -16 -1 -156 71 -192
98 l-24 19 52 47 c29 26 57 57 63 69 6 11 -23 -13 -65 -55 -42 -42 -76 -81
-76 -88 0 -15 69 -49 165 -82 l80 -27 0 -84 c0 -45 4 -91 9 -101 7 -15 -5 -13
-80 14 -49 17 -118 46 -153 65 -35 19 -66 33 -68 30 -3 -2 2 -34 10 -69 12
-54 21 -71 56 -103 35 -31 41 -42 36 -63 -8 -33 -12 -36 -28 -25 -7 5 -4 1 7
-9 85 -78 445 -196 746 -246 180 -30 370 -44 485 -38 67 4 126 2 180 -8 154
-28 193 -19 229 49 16 30 17 39 6 66 -12 30 -13 30 -33 13 -19 -18 -20 -17 -8
5 11 22 11 22 -8 10 -17 -10 -23 -10 -33 0 -11 11 -10 12 6 6 11 -4 21 -2 27
7 14 23 10 39 -9 39 -22 0 -42 19 -42 40 1 12 2 12 11 -2 5 -10 15 -18 21 -18
6 0 2 10 -10 23 -28 30 -29 51 -1 44 17 -5 18 -3 7 11 -33 44 -633 665 -755
782 -48 47 -69 65 -45 40z m-7 -357 c13 -16 12 -17 -3 -4 -10 7 -18 15 -18 17
0 8 8 3 21 -13z m497 -213 c-7 -10 -14 -17 -17 -15 -4 4 18 35 25 35 2 0 -1
-9 -8 -20z m-462 -46 c-3 -9 -6 -31 -6 -49 0 -29 -3 -33 -31 -37 l-31 -5 6 44
c4 28 2 42 -4 38 -6 -3 -10 -1 -10 4 0 6 -5 11 -11 11 -5 0 -7 -6 -3 -12 5 -8
1 -8 -12 2 -10 8 -21 15 -23 17 -1 1 27 2 64 2 55 0 66 -3 61 -15z m358 2
l179 -3 24 -27 c32 -37 29 -51 -14 -78 -36 -22 -46 -23 -198 -21 -88 2 -200 6
-250 10 -90 8 -90 8 -93 37 -2 16 -1 45 3 63 l6 35 82 -7 c45 -4 163 -8 261
-9z m-841 -57 c16 -1 18 -2 5 -6 -20 -5 -58 13 -58 28 0 6 7 3 16 -5 8 -9 25
-17 37 -17z m54 -15 c-3 -3 -12 -4 -19 -1 -8 3 -5 6 6 6 11 1 17 -2 13 -5z
m136 -24 c9 -11 13 -20 7 -20 -5 0 -14 9 -20 20 -6 11 -9 20 -8 20 2 0 11 -9
21 -20z m941 -30 c20 -22 36 -49 36 -61 0 -11 -4 -18 -9 -15 -10 7 -21 -67
-21 -149 0 -56 -2 -63 -24 -73 -24 -11 -25 -9 -34 41 -21 109 -28 187 -19 196
5 5 -14 3 -44 -6 -49 -14 -74 -14 -333 7 -155 12 -283 23 -285 25 -10 11 61
17 137 12 58 -3 75 -2 52 3 -23 6 -1 7 65 4 239 -11 318 -8 367 13 25 12 49
26 52 32 12 18 22 13 60 -29z m-988 -35 c126 -25 230 -45 232 -45 6 0 1 -120
-5 -120 -18 0 -430 92 -450 100 -20 8 -23 17 -23 60 0 27 4 50 8 50 5 0 111
-20 238 -45z m107 38 c-7 -2 -19 -2 -25 0 -7 3 -2 5 12 5 14 0 19 -2 13 -5z
m690 -262 c7 -7 7 -19 -1 -36 -11 -24 -14 -25 -116 -25 -58 0 -107 3 -109 8
-3 4 -8 21 -11 38 l-7 31 117 -3 c65 -2 122 -8 127 -13z"/>
<path d="M1352 890 c0 -14 2 -19 5 -12 2 6 2 18 0 25 -3 6 -5 1 -5 -13z"/>
<path d="M1784 1468 l-19 -23 23 19 c21 18 27 26 19 26 -2 0 -12 -10 -23 -22z"/>
<path d="M319 1443 c-13 -16 -12 -17 4 -4 9 7 17 15 17 17 0 8 -8 3 -21 -13z"/>
<path d="M259 1393 l-24 -28 28 24 c15 14 27 26 27 28 0 8 -8 1 -31 -24z"/>
<path d="M1516 1220 c11 -14 30 -36 42 -49 27 -30 27 -42 2 -73 -50 -64 -52
-60 113 -231 131 -136 156 -157 182 -157 62 0 91 45 62 96 -7 12 -104 115
-217 230 -113 115 -196 198 -184 184z"/>
<path d="M1755 1126 l-30 -25 64 -65 c36 -36 68 -63 73 -60 12 8 10 119 -4
149 -15 33 -62 34 -103 1z"/>
<path d="M55 1069 c-4 -5 -5 -11 -4 -12 2 -2 12 -8 21 -15 14 -11 16 -10 11 8
-7 25 -19 34 -28 19z"/>
<path d="M2471 484 c0 -11 3 -14 6 -6 3 7 2 16 -1 19 -3 4 -6 -2 -5 -13z"/>
<path d="M2214 461 c-29 -7 -94 -46 -94 -57 0 -2 14 3 32 12 38 19 101 22 122
5 10 -9 16 -9 21 -1 4 6 14 9 24 5 12 -5 11 -1 -4 14 -25 24 -60 32 -101 22z"/>
<path d="M1805 416 c3 -17 7 -53 10 -80 6 -55 38 -117 82 -158 42 -39 219
-139 236 -132 35 13 26 46 -40 142 -64 93 -104 145 -71 92 52 -85 110 -191
107 -194 -2 -2 -44 18 -94 45 -141 77 -205 163 -205 274 0 29 -4 42 -14 42
-10 0 -13 -10 -11 -31z"/>
<path d="M2483 395 c0 -22 2 -30 4 -17 2 12 2 30 0 40 -3 9 -5 -1 -4 -23z"/>
<path d="M2450 309 c-13 -15 -28 -25 -32 -23 -13 8 -9 -21 4 -34 10 -10 10
-17 0 -32 -18 -29 3 -25 26 5 18 23 40 102 30 109 -1 2 -14 -10 -28 -25z"/>
</g>
</svg>
