<?xml version="1.0" standalone="no"?>
<!DOCTYPE svg PUBLIC "-//W3C//DTD SVG 20010904//EN"
 "http://www.w3.org/TR/2001/REC-SVG-20010904/DTD/svg10.dtd">
<svg version="1.0" xmlns="http://www.w3.org/2000/svg"
 width="512.000000pt" height="512.000000pt" viewBox="0 0 512.000000 512.000000"
 preserveAspectRatio="xMidYMid meet">

<g transform="translate(0.000000,512.000000) scale(0.100000,-0.100000)"
fill="#000000" stroke="none">
<path d="M2142 4108 c-473 -557 -859 -1014 -858 -1015 6 -7 125 34 275 94 307
121 559 254 851 449 367 244 651 501 853 769 167 223 242 441 193 558 -16 39
-73 91 -124 113 -53 23 -175 43 -259 44 l-72 0 -859 -1012z"/>
<path d="M2405 4995 c-846 -279 -1758 -953 -2029 -1500 -122 -246 -97 -398 77
-463 64 -24 182 -42 278 -42 65 0 72 2 103 33 45 43 1709 2007 1705 2012 -2 2
-62 -16 -134 -40z"/>
<path d="M3760 4799 c0 -53 -42 -186 -89 -285 -95 -199 -222 -367 -450 -594
-246 -246 -519 -457 -840 -651 -464 -280 -932 -465 -1376 -545 -140 -25 -451
-26 -549 -1 -38 10 -71 16 -73 14 -2 -2 83 -150 189 -328 222 -373 266 -427
399 -491 190 -92 406 -114 736 -76 l101 11 154 -139 c84 -76 163 -147 174
-157 21 -18 24 -16 138 52 417 252 732 525 962 833 53 71 99 119 173 178 121
97 290 257 383 363 37 42 68 72 68 66 0 -25 -71 -222 -118 -326 -218 -488
-658 -956 -1234 -1314 -62 -38 -113 -74 -113 -79 0 -6 90 -91 199 -190 l199
-180 26 16 c282 181 600 457 774 674 203 253 353 542 417 806 l22 91 -68 277
c-47 191 -65 281 -59 290 6 8 47 68 93 136 221 326 294 636 197 847 -27 60
-400 690 -421 713 -12 12 -14 11 -14 -11z"/>
<path d="M4135 1950 c-216 -429 -590 -837 -1054 -1149 l-63 -43 23 -23 c65
-63 414 -375 420 -375 12 0 181 134 280 222 218 195 422 449 543 678 l44 85
-77 316 c-43 174 -81 323 -83 330 -3 8 -17 -10 -33 -41z"/>
<path d="M4374 847 c-124 -177 -386 -450 -592 -614 l-102 -82 52 -41 c167
-133 336 -144 527 -37 103 58 184 135 221 210 37 76 54 164 46 236 -7 59 -85
382 -95 393 -4 5 -30 -25 -57 -65z"/>
</g>
</svg>
