<?xml version="1.0" standalone="no"?>
<!DOCTYPE svg PUBLIC "-//W3C//DTD SVG 20010904//EN"
 "http://www.w3.org/TR/2001/REC-SVG-20010904/DTD/svg10.dtd">
<svg version="1.0" xmlns="http://www.w3.org/2000/svg"
 width="512.000000pt" height="511.000000pt" viewBox="0 0 512.000000 511.000000"
 preserveAspectRatio="xMidYMid meet">

<g transform="translate(0.000000,511.000000) scale(0.100000,-0.100000)"
fill="#000000" stroke="none">
<path d="M1712 4483 c-5 -15 -28 -78 -50 -139 l-40 -111 271 -98 c150 -54 276
-102 281 -106 9 -8 -84 -279 -96 -279 -4 0 -386 137 -849 305 -464 168 -846
301 -849 297 -12 -13 -380 -1037 -380 -1056 0 -10 37 -57 82 -105 44 -47 146
-154 225 -238 l145 -152 -112 -306 c-61 -169 -110 -309 -107 -312 7 -7 2539
-924 2542 -921 1 2 73 199 160 438 87 239 161 438 164 442 4 4 371 19 816 34
445 14 810 26 811 27 10 22 177 493 178 504 1 11 -322 132 -1262 473 -695 252
-1266 461 -1269 464 -9 8 91 276 102 276 6 0 132 -45 280 -99 149 -55 273 -96
277 -92 9 9 102 271 97 274 -6 5 -1365 498 -1388 504 -13 3 -21 -3 -29 -24z
m-874 -608 c4 -3 -254 -719 -268 -743 -5 -10 -40 21 -116 102 -60 64 -110 121
-112 126 -2 5 42 134 98 287 56 153 107 290 112 304 l9 26 137 -50 c75 -27
138 -51 140 -52z"/>
<path d="M4343 1890 c-106 -3 -195 -8 -198 -11 -19 -20 -224 -536 -235 -593
-25 -135 4 -284 81 -412 72 -119 226 -232 365 -268 77 -20 231 -21 304 -1 308
82 501 389 436 697 -8 36 -63 186 -121 332 l-107 266 -167 -2 c-91 -1 -252 -4
-358 -8z"/>
</g>
</svg>
